<?xml version="1.0" encoding="UTF-8" standalone="no"?><!--Uploaded to: SVG Repo, www.svgrepo.com, Generator: SVG Repo Mixer Tools--><svg version="1.1" id="Layer_1" viewBox="0 0 511.988 511.988" xml:space="preserve" sodipodi:docname="banner.svg" inkscape:version="1.4 (86a8ad7, 2024-10-11)" xmlns:inkscape="http://www.inkscape.org/namespaces/inkscape" xmlns:sodipodi="http://sodipodi.sourceforge.net/DTD/sodipodi-0.dtd" xmlns="http://www.w3.org/2000/svg" xmlns:svg="http://www.w3.org/2000/svg"><defs id="defs14"/><sodipodi:namedview id="namedview14" pagecolor="#505050" bordercolor="#eeeeee" borderopacity="1" inkscape:showpageshadow="0" inkscape:pageopacity="0" inkscape:pagecheckerboard="0" inkscape:deskcolor="#505050" inkscape:zoom="1.0681875" inkscape:cx="161.95658" inkscape:cy="293.48779" inkscape:window-width="1920" inkscape:window-height="974" inkscape:window-x="-11" inkscape:window-y="-11" inkscape:window-maximized="1" inkscape:current-layer="Layer_1"/><g id="g2" transform="matrix(0.9999985,0,0,1,2.0833865e-4,-77.999106)"><path style="fill:#f4be8e" d="m 149.34,170.652 c -4.016,0 -7.843,-2.266 -9.671,-6.125 -2.5,-5.328 -0.219,-11.688 5.125,-14.188 l 90.655,-42.67 c 5.328,-2.5 11.687,-0.219 14.203,5.108 2.5,5.328 0.219,11.688 -5.109,14.203 l -90.67,42.655 c -1.471,0.689 -3.018,1.017 -4.533,1.017 z" id="path1"/><path style="fill:#f4be8e" d="m 362.646,170.652 c -1.516,0 -3.062,-0.328 -4.531,-1.016 l -90.668,-42.655 c -5.328,-2.516 -7.609,-8.875 -5.109,-14.203 2.516,-5.327 8.859,-7.608 14.201,-5.108 l 90.654,42.67 c 5.328,2.5 7.625,8.859 5.109,14.188 -1.812,3.859 -5.656,6.124 -9.656,6.124 z" id="path2"/></g><path style="fill:#965353" d="m 271.994,511.988 h -32 c -5.89,0 -10.671,-4.781 -10.671,-10.672 V 10.656 C 229.323,4.765 234.104,0 239.994,0 h 32 c 5.889,0 10.67,4.766 10.67,10.656 v 490.66 c 0,5.891 -4.781,10.672 -10.67,10.672 z" id="path3" sodipodi:nodetypes="sssssssss"/><path style="fill:#ed5564" d="M 362.662,76.326 H 149.324 c -5.891,0 -10.656,4.766 -10.656,10.672 v 264.9925 c 0,3.234 1.469,6.297 4,8.328 l 106.654,85.327 c 1.953,1.562 4.312,2.344 6.671,2.344 2.36,0 4.719,-0.781 6.657,-2.344 l 106.668,-85.327 c 2.531,-2.031 4,-5.094 4,-8.328 V 86.998 c 0,-5.906 -4.765,-10.672 -10.656,-10.672 z" id="path4" sodipodi:nodetypes="ssssccsccsss"/><g id="g6" transform="translate(0,-23.9995)"><path style="fill:#da4453" d="m 213.323,383.99 c -5.891,0 -10.656,4.766 -10.656,10.656 v 13.656 l 21.327,17.079 v -30.734 c 0,-5.891 -4.781,-10.657 -10.671,-10.657 z" id="path5"/><path style="fill:#da4453" d="m 330.664,391.24 v -28.593 c 0,-5.891 -4.781,-10.656 -10.672,-10.656 -5.891,0 -10.672,4.766 -10.672,10.656 v 45.655 z" id="path6"/></g><path style="fill:#434a54" d="M 405.318,92.653 H 106.669 c -5.89,0 -10.671,-4.766 -10.671,-10.656 0,-5.906 4.781,-10.672 10.671,-10.672 h 298.649 c 5.891,0 10.672,4.766 10.672,10.672 0,5.891 -4.781,10.656 -10.672,10.656 z" id="path10"/></svg>