<?xml version="1.0" encoding="UTF-8" standalone="no"?><!--Uploaded to: SVG Repo, www.svgrepo.com, Generator: SVG Repo Mixer Tools--><svg height="800px" width="800px" version="1.1" id="Layer_1" viewBox="0 0 512 512" xml:space="preserve" sodipodi:docname="eye.svg" inkscape:version="1.4 (86a8ad7, 2024-10-11)" xmlns:inkscape="http://www.inkscape.org/namespaces/inkscape" xmlns:sodipodi="http://sodipodi.sourceforge.net/DTD/sodipodi-0.dtd" xmlns="http://www.w3.org/2000/svg" xmlns:svg="http://www.w3.org/2000/svg"><sodipodi:namedview id="namedview5" pagecolor="#505050" bordercolor="#eeeeee" borderopacity="1" inkscape:showpageshadow="0" inkscape:pageopacity="0" inkscape:pagecheckerboard="0" inkscape:deskcolor="#505050" inkscape:zoom="0.94625" inkscape:cx="399.4716" inkscape:cy="400" inkscape:window-width="1920" inkscape:window-height="974" inkscape:window-x="-11" inkscape:window-y="-11" inkscape:window-maximized="1" inkscape:current-layer="Layer_1"/><path style="fill:#E6F3FF" d="M509.089,246.749C452.116,169.217,353.608,89.922,256,89.594  C158.199,89.922,59.492,169.751,2.911,246.749c-3.882,5.563-3.882,12.936,0,18.501C59.884,342.783,158.392,422.078,256,422.406  c97.801-0.328,196.509-80.158,253.089-157.156C512.97,259.686,512.97,252.313,509.089,246.749z" id="path1"/><path style="fill:#32BBFF" d="M256,155.839c-55.286,0.027-100.133,44.876-100.162,100.162  c0.029,55.284,44.876,100.133,100.162,100.16c55.286-0.027,100.133-44.876,100.162-100.16  C356.133,200.716,311.286,155.866,256,155.839z" id="path3"/><circle style="fill:#003F84" cx="256.003" cy="256.003" r="33.387" id="circle4"/><circle style="fill:#E6F3FF" cx="322.778" cy="189.229" r="33.387" id="circle5"/></svg>