<?xml version="1.0" encoding="iso-8859-1"?><!--Uploaded to: SVG Repo, www.svgrepo.com, Generator: SVG Repo Mixer Tools--><svg version="1.1" id="Layer_1" xmlns="http://www.w3.org/2000/svg" xmlns:xlink="http://www.w3.org/1999/xlink" viewBox="0 0 512 512" xml:space="preserve"><g><path style="fill:#F6BB42" d="M372.76,183.729l-44.858-44.866c-2.125-2.133-5.062-3.258-8.078-3.109
		c-2.999,0.148-5.812,1.562-7.718,3.898l-67.867,82.943c-3.484,4.242-3.172,10.422,0.703,14.297l30.179,30.163
		c3.875,3.875,10.047,4.18,14.297,0.711l82.936-67.865c0.281-0.227,0.547-0.461,0.797-0.711c0-0.008,0.016-0.016,0.016-0.023
		c4.156-4.172,4.141-10.906-0.016-15.07C373.025,183.971,372.9,183.846,372.76,183.729z"/><path style="fill:#F6BB42" d="M290.199,267.047c0,0,0,0,0,0.008L93.617,463.622c-2,2-4.719,3.125-7.547,3.125
		s-5.531-1.125-7.531-3.125l-30.171-30.155c-4.156-4.172-4.156-10.922,0-15.094l196.575-196.567c4.172-4.164,10.922-4.164,15.078,0
		l29.805,29.789c0.125,0.117,0.25,0.242,0.375,0.367C294.371,256.126,294.371,262.875,290.199,267.047z"/></g><polygon style="fill:#965353" points="290.199,267.055 138.866,418.389 93.617,373.139 244.942,221.806 "/><path style="fill:#434A54" d="M320.354,206.728c-4.155,4.164-10.905,4.164-15.077,0c-4.156-4.164-4.172-10.914,0-15.078
	s10.922-4.164,15.077,0C324.526,195.814,324.526,202.564,320.354,206.728z"/><path style="fill:#ED5564" d="M108.694,478.699l-30.156,30.172c-2.875,2.859-7.109,3.859-10.937,2.562l-45.437-15.266
	c-3.172-1.062-5.672-3.562-6.719-6.75L0.54,444.357c-1.266-3.828-0.266-8.047,2.578-10.891l30.171-30.172
	c2-2,4.719-3.125,7.531-3.125c2.843,0,5.546,1.125,7.546,3.125l60.327,60.327C112.866,467.794,112.866,474.544,108.694,478.699z"/><path style="fill:#DA4453" d="M70.992,425.92l-57.53,57.529l1.984,5.969c1.047,3.188,3.547,5.688,6.719,6.75l6.531,2.203
	l57.374-57.373L70.992,425.92z"/><g><polygon style="fill:#7F4545" points="207.692,259.071 186.365,280.391 276.855,280.391 290.199,267.055 282.215,259.071 	"/><polygon style="fill:#7F4545" points="226.646,330.594 247.973,309.266 157.49,309.266 136.163,330.594 	"/><polygon style="fill:#7F4545" points="176.459,380.779 197.787,359.452 107.288,359.452 93.617,373.139 101.257,380.779 	"/></g><path style="fill:#FFCE54" d="M376.51,53.34l-22.61-7.547c-3.844-1.273-8.062-0.273-10.921,2.578l-60.327,60.327
	c-2.859,2.859-3.844,7.078-2.578,10.914l7.547,22.625c0.516,1.57,1.406,2.992,2.578,4.164l75.404,75.404
	c1.172,1.172,2.594,2.055,4.172,2.578l22.625,7.539c3.828,1.281,8.047,0.281,10.906-2.57l60.326-60.327
	c2.859-2.859,3.859-7.085,2.578-10.914l-7.547-22.625c-0.516-1.57-1.406-2.992-2.577-4.164l-75.405-75.405
	C379.51,54.746,378.088,53.864,376.51,53.34z"/><path style="fill:#F6BB42" d="M403.307,169.025c-4.156,4.164-10.922,4.164-15.078,0l-45.249-45.249
	c-4.156-4.164-4.156-10.914,0-15.078c4.171-4.164,10.921-4.164,15.077,0l45.25,45.241
	C407.479,158.104,407.479,164.862,403.307,169.025z"/><g><path style="fill:#ED5564" d="M282.652,138.862l90.498-90.491c2-2,3.109-4.711,3.109-7.539c0-2.828-1.109-5.539-3.109-7.539
		L342.979,3.13c-4.156-4.164-10.922-4.164-15.078,0L237.41,93.621c-4.171,4.164-4.171,10.914,0,15.078l30.156,30.164
		c2,2,4.727,3.125,7.555,3.125S280.652,140.862,282.652,138.862z"/><path style="fill:#ED5564" d="M463.633,138.862l-90.482,90.49c-2,2-3.125,4.711-3.125,7.539s1.125,5.539,3.125,7.539
		l30.156,30.163c4.172,4.156,10.922,4.156,15.078,0l90.498-90.49c4.156-4.164,4.156-10.914,0-15.078l-30.172-30.163
		C474.555,134.698,467.805,134.698,463.633,138.862z"/></g><g><polygon style="fill:#DA4453" points="320.354,101.16 335.448,86.074 290.199,40.833 275.121,55.91 	"/><rect x="430.349" y="174.72" transform="matrix(0.7071 -0.7071 0.7071 0.7071 -16.9991 372.3859)" style="fill:#DA4453" width="21.323" height="63.985"/></g><g><path style="fill:#A85D5D" d="M146.397,425.92L146.397,425.92c-4.172,4.172-10.922,4.172-15.078,0L86.07,380.67
		c-4.156-4.156-4.156-10.906,0-15.077l0,0c4.172-4.156,10.921-4.156,15.093,0l45.234,45.249
		C150.569,414.998,150.569,421.764,146.397,425.92z"/><path style="fill:#A85D5D" d="M297.73,274.594L297.73,274.594c-4.156,4.156-10.906,4.156-15.078,0l-45.242-45.249
		c-4.171-4.156-4.171-10.914,0-15.078l0,0c4.156-4.164,10.906-4.164,15.078,0l45.242,45.25
		C301.902,263.68,301.902,270.43,297.73,274.594z"/></g></svg>