<?xml version="1.0" encoding="iso-8859-1"?><!--Uploaded to: SVG Repo, www.svgrepo.com, Generator: SVG Repo Mixer Tools--><svg height="800px" width="800px" version="1.1" id="Layer_1" xmlns="http://www.w3.org/2000/svg" xmlns:xlink="http://www.w3.org/1999/xlink" viewBox="0 0 511.992 511.992" xml:space="preserve"><path style="fill:#F6BB42" d="M32,42.683c-17.688,0-32,14.312-32,31.999v287.972c0,11.78,9.562,21.343,21.343,21.343h42.656
	V106.682V63.994V42.683H32z"/><path style="fill:#FFCE54" d="M479.992,106.682H0v287.971c0,17.688,14.312,32,32,32h479.992V138.682L479.992,106.682z"/><path style="fill:#F6BB42" d="M490.648,469.307c11.781,0,21.344-9.531,21.344-21.312V138.682c0,0-9.562,10.656-21.344,10.656
	h-42.656v319.971h42.656V469.307z"/><g><path style="fill:#FFCE54" d="M479.992,106.682h-32v63.998h32c17.672,0,32-14.343,32-31.999
		C511.992,120.993,497.664,106.682,479.992,106.682z"/><path style="fill:#FFCE54" d="M0,74.682v32h32C14.312,106.682,0,92.338,0,74.682z"/></g><g><path style="fill:#434A54" d="M74.671,237.117c-2.734,0-5.453-1.047-7.546-3.125c-4.156-4.172-4.156-10.922,0-15.093
		l42.671-42.656c4.172-4.172,10.922-4.172,15.093,0c4.156,4.156,4.156,10.922,0,15.078l-42.671,42.671
		C80.14,236.07,77.405,237.117,74.671,237.117z"/><path style="fill:#434A54" d="M117.342,237.117c-2.734,0-5.469-1.047-7.547-3.125L67.124,191.32
		c-4.156-4.156-4.156-10.922,0-15.078c4.171-4.172,10.921-4.172,15.093,0l42.671,42.656c4.156,4.171,4.156,10.921,0,15.093
		C122.795,236.07,120.077,237.117,117.342,237.117z"/><path style="fill:#434A54" d="M330.666,301.123c-2.734,0-5.453-1.062-7.547-3.125c-4.156-4.188-4.156-10.938,0-15.094
		l42.672-42.663c4.172-4.172,10.922-4.172,15.094,0c4.156,4.156,4.156,10.922,0,15.078l-42.672,42.679
		C336.135,300.06,333.4,301.123,330.666,301.123z"/><path style="fill:#434A54" d="M373.338,301.123c-2.734,0-5.469-1.062-7.547-3.125l-42.672-42.679
		c-4.156-4.156-4.156-10.922,0-15.078c4.172-4.172,10.922-4.172,15.094,0l42.672,42.663c4.156,4.156,4.156,10.906,0,15.094
		C378.791,300.06,376.072,301.123,373.338,301.123z"/><path style="fill:#434A54" d="M95.999,365.122c-2.719,0-5.453-1.062-7.531-3.125c-4.172-4.188-4.172-10.938,0-15.094
		l42.655-42.655c4.172-4.188,10.922-4.188,15.094,0c4.156,4.156,4.156,10.906,0,15.062l-42.671,42.687
		C101.467,364.059,98.733,365.122,95.999,365.122z"/><path style="fill:#434A54" d="M138.67,365.122c-2.734,0-5.453-1.062-7.547-3.125L88.468,319.31
		c-4.172-4.156-4.172-10.906,0-15.062c4.156-4.188,10.921-4.188,15.078,0l42.671,42.655c4.156,4.156,4.156,10.906,0,15.094
		C144.139,364.059,141.404,365.122,138.67,365.122z"/></g><path style="fill:#DA4453" d="M287.996,173.117h-32c-5.891,0-10.656,4.766-10.656,10.672c0,5.891,4.766,10.656,10.656,10.656h6.25
	l-77.78,77.803c-1.828,1.812-2.859,4.125-3.078,6.5c-0.297,3.062,0.734,6.219,3.078,8.562l0,0l42.656,42.688
	c2.094,2.062,4.812,3.124,7.547,3.124c2.734,0,5.468-1.062,7.546-3.124c4.156-4.188,4.156-10.938,0-15.094l-35.124-35.125
	l70.249-70.24v6.25c0,5.89,4.766,10.655,10.656,10.655s10.672-4.766,10.672-10.655v-32
	C298.668,177.883,293.887,173.117,287.996,173.117z"/><path style="fill:#ED5564" d="M287.996,333.122c0,23.562-19.094,42.655-42.656,42.655s-42.671-19.093-42.671-42.655
	s19.109-42.687,42.671-42.687S287.996,309.56,287.996,333.122z"/></svg>