<?xml version="1.0" encoding="UTF-8" standalone="no"?><!--Uploaded to: SVG Repo, www.svgrepo.com, Generator: SVG Repo Mixer Tools--><svg width="800px" height="800px" viewBox="0 0 64 64" aria-hidden="true" role="img" class="iconify iconify--emojione" preserveAspectRatio="xMidYMid meet" version="1.1" id="svg41" sodipodi:docname="classical-building-svgrepo-com.svg" inkscape:version="1.4 (86a8ad7, 2024-10-11)" xmlns:inkscape="http://www.inkscape.org/namespaces/inkscape" xmlns:sodipodi="http://sodipodi.sourceforge.net/DTD/sodipodi-0.dtd" xmlns="http://www.w3.org/2000/svg" xmlns:svg="http://www.w3.org/2000/svg"><sodipodi:namedview id="namedview41" pagecolor="#505050" bordercolor="#eeeeee" borderopacity="1" inkscape:showpageshadow="0" inkscape:pageopacity="0" inkscape:pagecheckerboard="0" inkscape:deskcolor="#505050" inkscape:zoom="0.91875" inkscape:cx="399.45578" inkscape:cy="400" inkscape:window-width="1920" inkscape:window-height="974" inkscape:window-x="-11" inkscape:window-y="-11" inkscape:window-maximized="1" inkscape:current-layer="svg41"/><g fill="#acb8bf" id="g2"><path d="M2 60.1h60V62H2z" id="path1"/><path d="M5.5 56.4h53v1.9h-53z" id="path2"/></g><g fill="#dae3ea" id="g4"><path d="M3.8 58.2h56.5v1.9H3.8z" id="path3"/><path d="M7.2 54.5h49.5v1.9H7.2z" id="path4"/></g><path fill="#94989b" d="M4.8 27.8h54.4v1.9H4.8z" id="path5"/><path fill="#dae3ea" d="M2 29.6h60v1.9H2z" id="path6"/><path fill="#94989b" d="M32 4.8L2 21.2L4.5 25L32 6.7L59.5 25l2.5-3.8z" id="path7"/><g fill="#dae3ea" id="g9"><path d="M32 2L2 21.2v2.9L32 4.8l30 19.3v-2.9z" id="path8"/><path d="M32 6.7L2 25.9v1.9h60v-1.9z" id="path9"/></g><path fill="#acb8bf" d="M32 9.5L7.1 25.9h49.8z" id="path10"/><path fill="#dae3ea" d="M8.5 33.2h6v19.6h-6z" id="path14"/><g fill="#94989b" id="g16"><path d="M7.8 52.8h7.5v1.8H7.8z" id="path15"/><path d="M7.8 31.5h7.5v1.7H7.8z" id="path16"/></g><g fill="#c8d0d6" id="g20"><path d="M9.1 34h.7v18h-.7z" id="path17"/><path d="M13.2 34h.7v18h-.7z" id="path18"/><path d="M11.8 34h.7v18h-.7z" id="path19"/><path d="M10.5 34h.7v18h-.7z" id="path20"/></g><path fill="#dae3ea" d="M22.2 33.2h6v19.6h-6z" id="path21"/><g fill="#94989b" id="g23"><path d="M21.4 52.8h7.5v1.7h-7.5z" id="path22"/><path d="M21.4 31.5h7.5v1.7h-7.5z" id="path23"/></g><g fill="#c8d0d6" id="g27"><path d="M22.8 34h.7v18h-.7z" id="path24"/><path d="M26.9 34h.7v18h-.7z" id="path25"/><path d="M25.5 34h.7v18h-.7z" id="path26"/><path d="M24.1 34h.7v18h-.7z" id="path27"/></g><path fill="#dae3ea" d="M35.8 33.2h6v19.6h-6z" id="path28"/><g fill="#94989b" id="g30"><path d="M35.1 52.8h7.5v1.7h-7.5z" id="path29"/><path d="M35.1 31.5h7.5v1.7h-7.5z" id="path30"/></g><g fill="#c8d0d6" id="g34"><path d="M36.4 34h.7v18h-.7z" id="path31"/><path d="M40.5 34h.7v18h-.7z" id="path32"/><path d="M39.2 34h.7v18h-.7z" id="path33"/><path d="M37.8 34h.7v18h-.7z" id="path34"/></g><path fill="#dae3ea" d="M49.5 33.2h6v19.6h-6z" id="path35"/><g fill="#94989b" id="g37"><path d="M48.8 52.8h7.5v1.8h-7.5z" id="path36"/><path d="M48.8 31.5h7.5v1.7h-7.5z" id="path37"/></g><g fill="#c8d0d6" id="g41"><path d="M50.1 34h.7v18h-.7z" id="path38"/><path d="M54.2 34h.7v18h-.7z" id="path39"/><path d="M52.8 34h.7v18h-.7z" id="path40"/><path d="M51.5 34h.7v18h-.7z" id="path41"/></g></svg>