<?xml version="1.0" encoding="UTF-8" standalone="no"?><!--Created with Inkscape (http://www.inkscape.org/)--><svg width="100mm" height="100mm" viewBox="0 0 100 100" version="1.1" id="svg1" xml:space="preserve" inkscape:version="1.4 (86a8ad7, 2024-10-11)" sodipodi:docname="icon.svg" inkscape:export-filename="..\icon_color.png" inkscape:export-xdpi="260.09601" inkscape:export-ydpi="260.09601" xmlns:inkscape="http://www.inkscape.org/namespaces/inkscape" xmlns:sodipodi="http://sodipodi.sourceforge.net/DTD/sodipodi-0.dtd" xmlns:xlink="http://www.w3.org/1999/xlink" xmlns="http://www.w3.org/2000/svg" xmlns:svg="http://www.w3.org/2000/svg"><sodipodi:namedview id="namedview1" pagecolor="#505050" bordercolor="#eeeeee" borderopacity="1" inkscape:showpageshadow="0" inkscape:pageopacity="0" inkscape:pagecheckerboard="0" inkscape:deskcolor="#505050" inkscape:document-units="mm" inkscape:zoom="1.0827125" inkscape:cx="208.73501" inkscape:cy="255.37712" inkscape:window-width="1920" inkscape:window-height="974" inkscape:window-x="-11" inkscape:window-y="-11" inkscape:window-maximized="1" inkscape:current-layer="svg1" showguides="false"/><defs id="defs1"><inkscape:path-effect effect="mirror_symmetry" start_point="-1.5,48.5" end_point="98.5,48.5" center_point="48.5,48.5" id="path-effect20" is_visible="true" lpeversion="1.2" lpesatellites="" mode="horizontal" discard_orig_path="false" fuse_paths="false" oposite_fuse="false" split_items="false" split_open="false" link_styles="false"/><inkscape:path-effect effect="mirror_symmetry" start_point="48.5,-1.5" end_point="48.5,98.5" center_point="48.5,48.5" id="path-effect18" is_visible="true" lpeversion="1.2" lpesatellites="" mode="vertical" discard_orig_path="false" fuse_paths="false" oposite_fuse="false" split_items="false" split_open="false" link_styles="false"/><inkscape:path-effect effect="mirror_symmetry" start_point="-1.5,48.5" end_point="98.5,48.5" center_point="48.5,48.5" id="path-effect15" is_visible="true" lpeversion="1.2" lpesatellites="" mode="horizontal" discard_orig_path="false" fuse_paths="false" oposite_fuse="false" split_items="false" split_open="false" link_styles="false"/><inkscape:path-effect effect="mirror_symmetry" start_point="48.5,-1.5" end_point="48.5,98.5" center_point="48.5,48.5" id="path-effect13" is_visible="true" lpeversion="1.2" lpesatellites="" mode="vertical" discard_orig_path="false" fuse_paths="false" oposite_fuse="false" split_items="false" split_open="false" link_styles="false"/><inkscape:path-effect effect="fillet_chamfer" id="path-effect16" is_visible="true" lpeversion="1" nodesatellites_param="F,0,1,1,0,14.2875,0,1 @ F,0,1,1,0,14.2875,0,1 @ F,0,1,1,0,14.2875,0,1 @ F,0,1,1,0,14.2875,0,1" radius="54" unit="px" method="auto" mode="F" chamfer_steps="1" flexible="false" use_knot_distance="true" apply_no_radius="true" apply_with_radius="true" only_selected="true" hide_knots="false"/><linearGradient id="linearGradient14" inkscape:collect="always"><stop style="stop-color:#998000;stop-opacity:1" offset="0" id="stop14"/><stop style="stop-color:#e5d300;stop-opacity:1" offset="1" id="stop15"/></linearGradient><linearGradient id="linearGradient12" inkscape:collect="always"><stop style="stop-color:#998000;stop-opacity:1" offset="0" id="stop12"/><stop style="stop-color:#e5d300;stop-opacity:1" offset="0.78759402" id="stop13"/></linearGradient><inkscape:path-effect effect="mirror_symmetry" start_point="50,0" end_point="50,100" center_point="50,50" id="path-effect12" is_visible="true" lpeversion="1.2" lpesatellites="" mode="vertical" discard_orig_path="false" fuse_paths="false" oposite_fuse="false" split_items="false" split_open="false" link_styles="false"/><inkscape:path-effect effect="mirror_symmetry" start_point="50,0" end_point="50,100" center_point="50,50" id="path-effect11" is_visible="false" lpeversion="1.2" lpesatellites="" mode="vertical" discard_orig_path="false" fuse_paths="false" oposite_fuse="false" split_items="false" split_open="false" link_styles="false"/><inkscape:path-effect effect="mirror_symmetry" start_point="50,0" end_point="50,100" center_point="50,50" id="path-effect9" is_visible="true" lpeversion="1.2" lpesatellites="" mode="vertical" discard_orig_path="false" fuse_paths="false" oposite_fuse="false" split_items="false" split_open="false" link_styles="false"/><inkscape:path-effect effect="fillet_chamfer" id="path-effect4" is_visible="true" lpeversion="1" nodesatellites_param="F,0,0,1,0,10.583333,0,1 @ F,0,0,1,0,0,0,1 @ F,0,0,1,0,0,0,1 @ F,0,1,1,0,3.571875,0,1 @ F,0,0,1,0,0,0,1 @ F,0,0,1,0,0,0,1" radius="13.5" unit="px" method="auto" mode="F" chamfer_steps="1" flexible="false" use_knot_distance="false" apply_no_radius="true" apply_with_radius="true" only_selected="true" hide_knots="false"/><inkscape:path-effect effect="mirror_symmetry" start_point="48.5,-1.5" end_point="48.5,98.5" center_point="48.5,48.5" id="path-effect8" is_visible="true" lpeversion="1.2" lpesatellites="" mode="vertical" discard_orig_path="false" fuse_paths="false" oposite_fuse="false" split_items="false" split_open="false" link_styles="false"/><inkscape:path-effect effect="mirror_symmetry" start_point="-1.5,48.5" end_point="98.5,48.5" center_point="48.5,48.5" id="path-effect9-1" is_visible="true" lpeversion="1.2" lpesatellites="" mode="horizontal" discard_orig_path="false" fuse_paths="false" oposite_fuse="false" split_items="false" split_open="false" link_styles="false"/><linearGradient inkscape:collect="always" xlink:href="#linearGradient12" id="linearGradient13" x1="50" y1="79.000298" x2="50" y2="20.9998" gradientUnits="userSpaceOnUse"/><linearGradient inkscape:collect="always" xlink:href="#linearGradient14" id="linearGradient15" x1="50" y1="97.5" x2="50" y2="2.5" gradientUnits="userSpaceOnUse"/></defs><path style="fill:#4d4d4d;fill-opacity:1;stroke-width:0;stroke-dasharray:none" d="m 14.2875,0 h 71.425 A 14.2875,14.2875 45 0 1 100,14.2875 v 71.425 A 14.2875,14.2875 135 0 1 85.7125,100 H 14.2875 A 14.2875,14.2875 45 0 1 0,85.7125 V 14.2875 A 14.2875,14.2875 135 0 1 14.2875,0 Z" id="path16" sodipodi:nodetypes="ccccc" inkscape:label="bg"/><path style="display:inline;fill:url(#linearGradient15);stroke-width:0;stroke-dasharray:none" d="M 13.08333,2.5 C 7.23832,2.5 2.5,7.23832 2.5,13.083333 V 27 h 2.35 c 0,-2.412763 2.0914779,-4.500187 4.65009,-4.500187 v -9.427848 c 0,-1.972693 1.59918,-3.571875 3.57188,-3.571875 h 9.42784 C 22.49981,7.2815526 24.49203,4.85 27,4.85 V 2.5 Z m 70.83334,0 C 89.76168,2.5 94.5,7.23832 94.5,13.083333 V 27 h -2.35 c 0,-2.412763 -2.091478,-4.500187 -4.65009,-4.500187 v -9.427848 c 0,-1.972693 -1.59918,-3.571875 -3.57188,-3.571875 H 74.50019 C 74.50019,7.2815526 72.50797,4.85 70,4.85 V 2.5 Z m -70.83334,92 C 7.23832,94.5 2.5,89.76168 2.5,83.916667 V 70 h 2.35 c 0,2.412763 2.0914779,4.500187 4.65009,4.500187 v 9.427848 c 0,1.972693 1.59918,3.571875 3.57188,3.571875 h 9.42784 c 0,2.218537 1.99222,4.65009 4.50019,4.65009 v 2.35 z m 70.83334,0 C 89.76168,94.5 94.5,89.76168 94.5,83.916667 V 70 h -2.35 c 0,2.412763 -2.091478,4.500187 -4.65009,4.500187 v 9.427848 c 0,1.972693 -1.59918,3.571875 -3.57188,3.571875 H 74.50019 C 74.50019,89.718447 72.50797,92.15 70,92.15 v 2.35 z" id="path1" inkscape:label="corner" transform="translate(1.5,1.5)" sodipodi:nodetypes="sscccsscccs"/><path id="path9" style="display:inline;fill:url(#linearGradient13);stroke-width:0;stroke-dasharray:none" d="M 50.000049,0 C 44.708355,0.06172562 41.579799,0.75063766 37.999748,1.9998779 L 44,20.299955 c 1.815738,-0.170144 4.274448,-0.299911 6.000049,-0.299911 z m 0,25 C 46.214144,25 42.672461,25.324709 39.5,26 L 37,20 C 28.789478,23.341761 23.337279,30.776148 20.999752,39.499915 V 72.000256 C 25.841035,83.492306 33.374071,92.292712 42.00002,100.0001 V 60.999894 C 37.075717,60.084499 32.448844,58.276383 27.999841,55.935087 v -8.934855 c 5.921208,1.709125 11.92006,2.718692 17.999935,2.999817 v 17.740002 c 1.333333,4.102847 2.66694,5.617022 4.000273,7.260022 z m -9.8e-5,-25 c 5.291694,0.06172562 8.42025,0.75063766 12.000301,1.9998779 L 56,20.299955 c -1.815738,-0.170144 -4.274448,-0.299911 -6.000049,-0.299911 z m 0,25 C 53.785856,25 57.327539,25.324709 60.5,26 L 63,20 c 8.210522,3.341761 13.662721,10.776148 16.000248,19.499915 V 72.000256 C 74.158965,83.492306 66.625929,92.292712 57.99998,100.0001 V 60.999894 c 4.924303,-0.915395 9.551176,-2.723511 14.000179,-5.064807 v -8.934855 c -5.921208,1.709125 -11.92006,2.718692 -17.999935,2.999817 v 17.740002 c -1.333333,4.102847 -2.66694,5.617022 -4.000273,7.260022 z" sodipodi:nodetypes="cccccccccccccccccc" inkscape:label="helmet"/></svg>