<?xml version="1.0" encoding="UTF-8" standalone="no"?><!--Created with Inkscape (http://www.inkscape.org/)--><svg width="100mm" height="100mm" viewBox="0 0 100 100" version="1.1" id="svg1" xml:space="preserve" inkscape:version="1.4 (86a8ad7, 2024-10-11)" sodipodi:docname="icon.svg" inkscape:export-filename="..\icon_color.png" inkscape:export-xdpi="260.09601" inkscape:export-ydpi="260.09601" xmlns:inkscape="http://www.inkscape.org/namespaces/inkscape" xmlns:sodipodi="http://sodipodi.sourceforge.net/DTD/sodipodi-0.dtd" xmlns:xlink="http://www.w3.org/1999/xlink" xmlns="http://www.w3.org/2000/svg" xmlns:svg="http://www.w3.org/2000/svg"><sodipodi:namedview id="namedview1" pagecolor="#505050" bordercolor="#eeeeee" borderopacity="1" inkscape:showpageshadow="0" inkscape:pageopacity="0" inkscape:pagecheckerboard="0" inkscape:deskcolor="#505050" inkscape:document-units="mm" inkscape:zoom="1.0827125" inkscape:cx="209.65861" inkscape:cy="255.37712" inkscape:window-width="1920" inkscape:window-height="974" inkscape:window-x="-11" inkscape:window-y="-11" inkscape:window-maximized="1" inkscape:current-layer="svg1" showguides="false"/><defs id="defs1"><inkscape:path-effect effect="mirror_symmetry" start_point="-1.5,48.5" end_point="98.5,48.5" center_point="48.5,48.5" id="path-effect20" is_visible="true" lpeversion="1.2" lpesatellites="" mode="horizontal" discard_orig_path="false" fuse_paths="false" oposite_fuse="false" split_items="false" split_open="false" link_styles="false"/><inkscape:path-effect effect="mirror_symmetry" start_point="48.5,-1.5" end_point="48.5,98.5" center_point="48.5,48.5" id="path-effect18" is_visible="true" lpeversion="1.2" lpesatellites="" mode="vertical" discard_orig_path="false" fuse_paths="false" oposite_fuse="false" split_items="false" split_open="false" link_styles="false"/><inkscape:path-effect effect="mirror_symmetry" start_point="-1.5,48.5" end_point="98.5,48.5" center_point="48.5,48.5" id="path-effect15" is_visible="true" lpeversion="1.2" lpesatellites="" mode="horizontal" discard_orig_path="false" fuse_paths="false" oposite_fuse="false" split_items="false" split_open="false" link_styles="false"/><inkscape:path-effect effect="mirror_symmetry" start_point="48.5,-1.5" end_point="48.5,98.5" center_point="48.5,48.5" id="path-effect13" is_visible="true" lpeversion="1.2" lpesatellites="" mode="vertical" discard_orig_path="false" fuse_paths="false" oposite_fuse="false" split_items="false" split_open="false" link_styles="false"/><inkscape:path-effect effect="fillet_chamfer" id="path-effect16" is_visible="true" lpeversion="1" nodesatellites_param="F,0,1,1,0,14.2875,0,1 @ F,0,1,1,0,14.2875,0,1 @ F,0,1,1,0,14.2875,0,1 @ F,0,1,1,0,14.2875,0,1" radius="54" unit="px" method="auto" mode="F" chamfer_steps="1" flexible="false" use_knot_distance="true" apply_no_radius="true" apply_with_radius="true" only_selected="true" hide_knots="false"/><linearGradient id="linearGradient14" inkscape:collect="always"><stop style="stop-color:#998000;stop-opacity:1" offset="0" id="stop14"/><stop style="stop-color:#e5d300;stop-opacity:1" offset="1" id="stop15"/></linearGradient><linearGradient id="linearGradient12" inkscape:collect="always"><stop style="stop-color:#998000;stop-opacity:1" offset="0" id="stop12"/><stop style="stop-color:#e5d300;stop-opacity:1" offset="0.78759402" id="stop13"/></linearGradient><inkscape:path-effect effect="mirror_symmetry" start_point="50,0" end_point="50,100" center_point="50,50" id="path-effect12" is_visible="true" lpeversion="1.2" lpesatellites="" mode="vertical" discard_orig_path="false" fuse_paths="false" oposite_fuse="false" split_items="false" split_open="false" link_styles="false"/><inkscape:path-effect effect="mirror_symmetry" start_point="50,0" end_point="50,100" center_point="50,50" id="path-effect11" is_visible="false" lpeversion="1.2" lpesatellites="" mode="vertical" discard_orig_path="false" fuse_paths="false" oposite_fuse="false" split_items="false" split_open="false" link_styles="false"/><inkscape:path-effect effect="mirror_symmetry" start_point="50,0" end_point="50,100" center_point="50,50" id="path-effect9" is_visible="true" lpeversion="1.2" lpesatellites="" mode="vertical" discard_orig_path="false" fuse_paths="false" oposite_fuse="false" split_items="false" split_open="false" link_styles="false"/><inkscape:path-effect effect="fillet_chamfer" id="path-effect4" is_visible="true" lpeversion="1" nodesatellites_param="F,0,0,1,0,10.583333,0,1 @ F,0,0,1,0,0,0,1 @ F,0,0,1,0,0,0,1 @ F,0,1,1,0,3.571875,0,1 @ F,0,0,1,0,0,0,1 @ F,0,0,1,0,0,0,1" radius="13.5" unit="px" method="auto" mode="F" chamfer_steps="1" flexible="false" use_knot_distance="false" apply_no_radius="true" apply_with_radius="true" only_selected="true" hide_knots="false"/><inkscape:path-effect effect="mirror_symmetry" start_point="48.5,-1.5" end_point="48.5,98.5" center_point="48.5,48.5" id="path-effect8" is_visible="true" lpeversion="1.2" lpesatellites="" mode="vertical" discard_orig_path="false" fuse_paths="false" oposite_fuse="false" split_items="false" split_open="false" link_styles="false"/><inkscape:path-effect effect="mirror_symmetry" start_point="-1.5,48.5" end_point="98.5,48.5" center_point="48.5,48.5" id="path-effect9-1" is_visible="true" lpeversion="1.2" lpesatellites="" mode="horizontal" discard_orig_path="false" fuse_paths="false" oposite_fuse="false" split_items="false" split_open="false" link_styles="false"/><linearGradient inkscape:collect="always" xlink:href="#linearGradient12" id="linearGradient13" x1="50" y1="79.000298" x2="50" y2="20.9998" gradientUnits="userSpaceOnUse"/><linearGradient inkscape:collect="always" xlink:href="#linearGradient14" id="linearGradient15" x1="50" y1="97.5" x2="50" y2="2.5" gradientUnits="userSpaceOnUse"/></defs><path style="fill:#4d4d4d;fill-opacity:1;stroke-width:0;stroke-dasharray:none" d="m 14.2875,0 h 71.425 A 14.2875,14.2875 45 0 1 100,14.2875 v 71.425 A 14.2875,14.2875 135 0 1 85.7125,100 H 14.2875 A 14.2875,14.2875 45 0 1 0,85.7125 V 14.2875 A 14.2875,14.2875 135 0 1 14.2875,0 Z" id="path16" sodipodi:nodetypes="ccccc" inkscape:label="bg"/><path style="display:inline;fill:url(#linearGradient15);stroke-width:0;stroke-dasharray:none" d="M 13.08333,2.5 C 7.23832,2.5 2.5,7.23832 2.5,13.083333 V 27 h 2.35 c 0,-2.412763 2.0914779,-4.500187 4.65009,-4.500187 v -9.427848 c 0,-1.972693 1.59918,-3.571875 3.57188,-3.571875 h 9.42784 C 22.49981,7.2815526 24.49203,4.85 27,4.85 V 2.5 Z m 70.83334,0 C 89.76168,2.5 94.5,7.23832 94.5,13.083333 V 27 h -2.35 c 0,-2.412763 -2.091478,-4.500187 -4.65009,-4.500187 v -9.427848 c 0,-1.972693 -1.59918,-3.571875 -3.57188,-3.571875 H 74.50019 C 74.50019,7.2815526 72.50797,4.85 70,4.85 V 2.5 Z m -70.83334,92 C 7.23832,94.5 2.5,89.76168 2.5,83.916667 V 70 h 2.35 c 0,2.412763 2.0914779,4.500187 4.65009,4.500187 v 9.427848 c 0,1.972693 1.59918,3.571875 3.57188,3.571875 h 9.42784 c 0,2.218537 1.99222,4.65009 4.50019,4.65009 v 2.35 z m 70.83334,0 C 89.76168,94.5 94.5,89.76168 94.5,83.916667 V 70 h -2.35 c 0,2.412763 -2.091478,4.500187 -4.65009,4.500187 v 9.427848 c 0,1.972693 -1.59918,3.571875 -3.57188,3.571875 H 74.50019 C 74.50019,89.718447 72.50797,92.15 70,92.15 v 2.35 z" id="path1" inkscape:label="corner" transform="translate(1.5,1.5)" sodipodi:nodetypes="sscccsscccs"/><path id="path9" style="display:inline;fill:url(#linearGradient13);stroke-width:0;stroke-dasharray:none" inkscape:label="helmet" d="M 50.000049 0 C 44.708355 0.06172562 41.579799 0.75063769 37.999748 1.9998779 L 43.999898 20.300053 C 45.815636 20.129909 48.274448 19.999813 50.000049 19.999813 C 51.72565 19.999813 54.184461 20.129909 56.000199 20.300053 L 62.00035 1.9998779 C 58.420299 0.75063769 55.291743 0.06172562 50.000049 0 z M 36.999809 19.999813 C 28.789287 23.341574 23.337279 30.776148 20.999752 39.499915 L 20.999752 72.000256 C 25.841035 83.492306 33.374071 92.29271 42.00002 100.0001 L 42.00002 60.999894 C 37.075717 60.084499 32.448844 58.276383 27.999841 55.935087 L 27.999841 47.000232 C 33.921049 48.709357 39.919901 49.718924 45.999776 50.000049 L 45.999776 67.740051 C 47.333109 71.842898 48.666716 73.357073 50.000049 75.000073 C 51.333382 73.357073 52.666988 71.842898 54.000321 67.740051 L 54.000321 50.000049 C 60.080196 49.718924 66.079048 48.709357 72.000256 47.000232 L 72.000256 55.935087 C 67.551253 58.276383 62.92438 60.084499 58.000077 60.999894 L 58.000077 100.0001 C 66.626026 92.29271 74.159063 83.492306 79.000346 72.000256 L 79.000346 39.499915 C 76.662819 30.776148 71.210294 23.341574 62.999772 19.999813 L 60.500183 25.999963 C 57.327722 25.324672 53.785954 25.000024 50.000049 25.000024 C 46.214144 25.000024 42.672376 25.324672 39.499915 25.999963 L 36.999809 19.999813 z "/></svg>