<?xml version="1.0" encoding="UTF-8" standalone="no"?><!--Created with Inkscape (http://www.inkscape.org/)--><svg width="362mm" height="100mm" viewBox="0 0 362 100" version="1.1" id="svg1" xml:space="preserve" inkscape:version="1.4 (86a8ad7, 2024-10-11)" sodipodi:docname="logo.svg" inkscape:export-filename="..\logo.png" inkscape:export-xdpi="260.09601" inkscape:export-ydpi="260.09601" xmlns:inkscape="http://www.inkscape.org/namespaces/inkscape" xmlns:sodipodi="http://sodipodi.sourceforge.net/DTD/sodipodi-0.dtd" xmlns:xlink="http://www.w3.org/1999/xlink" xmlns="http://www.w3.org/2000/svg" xmlns:svg="http://www.w3.org/2000/svg"><sodipodi:namedview id="namedview1" pagecolor="#505050" bordercolor="#eeeeee" borderopacity="1" inkscape:showpageshadow="0" inkscape:pageopacity="0" inkscape:pagecheckerboard="0" inkscape:deskcolor="#505050" inkscape:document-units="mm" inkscape:zoom="0.63520494" inkscape:cx="846.97074" inkscape:cy="299.90321" inkscape:window-width="1920" inkscape:window-height="974" inkscape:window-x="-11" inkscape:window-y="-11" inkscape:window-maximized="1" inkscape:current-layer="svg1" showguides="false"/><defs id="defs1"><inkscape:path-effect effect="mirror_symmetry" start_point="196.43013,3.9263863" end_point="196.43013,57.910267" center_point="196.43013,30.918327" id="path-effect10" is_visible="true" lpeversion="1.2" lpesatellites="" mode="free" discard_orig_path="false" fuse_paths="false" oposite_fuse="false" split_items="false" split_open="false" link_styles="false"/><linearGradient id="linearGradient4" inkscape:collect="always"><stop style="stop-color:#998000;stop-opacity:1" offset="0.43694493" id="stop4"/><stop style="stop-color:#e5d300;stop-opacity:1" offset="0.63587928" id="stop5"/></linearGradient><linearGradient id="linearGradient2" inkscape:collect="always"><stop style="stop-color:#998000;stop-opacity:1" offset="0.39431617" id="stop2"/><stop style="stop-color:#e5d300;stop-opacity:1" offset="0.57193607" id="stop3"/></linearGradient><inkscape:path-effect effect="fillet_chamfer" id="path-effect16" is_visible="true" lpeversion="1" nodesatellites_param="F,0,1,1,0,14.2875,0,1 @ F,0,1,1,0,14.2875,0,1 @ F,0,1,1,0,14.2875,0,1 @ F,0,1,1,0,14.2875,0,1" radius="54" unit="px" method="auto" mode="F" chamfer_steps="1" flexible="false" use_knot_distance="true" apply_no_radius="true" apply_with_radius="true" only_selected="true" hide_knots="false"/><linearGradient id="linearGradient14" inkscape:collect="always"><stop style="stop-color:#998000;stop-opacity:1" offset="0" id="stop14"/><stop style="stop-color:#e5d300;stop-opacity:1" offset="1" id="stop15"/></linearGradient><linearGradient id="linearGradient12" inkscape:collect="always"><stop style="stop-color:#998000;stop-opacity:1" offset="0" id="stop12"/><stop style="stop-color:#e5d300;stop-opacity:1" offset="0.78759402" id="stop13"/></linearGradient><inkscape:path-effect effect="mirror_symmetry" start_point="50,0" end_point="50,100" center_point="50,50" id="path-effect12" is_visible="true" lpeversion="1.2" lpesatellites="" mode="vertical" discard_orig_path="false" fuse_paths="false" oposite_fuse="false" split_items="false" split_open="false" link_styles="false"/><inkscape:path-effect effect="mirror_symmetry" start_point="50,0" end_point="50,100" center_point="50,50" id="path-effect11" is_visible="false" lpeversion="1.2" lpesatellites="" mode="vertical" discard_orig_path="false" fuse_paths="false" oposite_fuse="false" split_items="false" split_open="false" link_styles="false"/><inkscape:path-effect effect="mirror_symmetry" start_point="50,0" end_point="50,100" center_point="50,50" id="path-effect9" is_visible="true" lpeversion="1.2" lpesatellites="" mode="vertical" discard_orig_path="false" fuse_paths="false" oposite_fuse="false" split_items="false" split_open="false" link_styles="false"/><inkscape:path-effect effect="fillet_chamfer" id="path-effect4" is_visible="true" lpeversion="1" nodesatellites_param="F,0,0,1,0,10.583333,0,1 @ F,0,0,1,0,0,0,1 @ F,0,0,1,0,0,0,1 @ F,0,1,1,0,3.571875,0,1 @ F,0,0,1,0,0,0,1 @ F,0,0,1,0,0,0,1" radius="13.5" unit="px" method="auto" mode="F" chamfer_steps="1" flexible="false" use_knot_distance="false" apply_no_radius="true" apply_with_radius="true" only_selected="true" hide_knots="false"/><inkscape:path-effect effect="mirror_symmetry" start_point="48.5,-1.5" end_point="48.5,98.5" center_point="48.5,48.5" id="path-effect8" is_visible="true" lpeversion="1.2" lpesatellites="" mode="vertical" discard_orig_path="false" fuse_paths="false" oposite_fuse="false" split_items="false" split_open="false" link_styles="false"/><inkscape:path-effect effect="mirror_symmetry" start_point="-1.5,48.5" end_point="98.5,48.5" center_point="48.5,48.5" id="path-effect9-1" is_visible="true" lpeversion="1.2" lpesatellites="" mode="horizontal" discard_orig_path="false" fuse_paths="false" oposite_fuse="false" split_items="false" split_open="false" link_styles="false"/><linearGradient inkscape:collect="always" xlink:href="#linearGradient12" id="linearGradient13" x1="50" y1="79.000298" x2="50" y2="20.9998" gradientUnits="userSpaceOnUse" gradientTransform="translate(-3.999752)"/><linearGradient inkscape:collect="always" xlink:href="#linearGradient2" id="linearGradient3" x1="242.98796" y1="160.8174" x2="242.98796" y2="-98.980972" gradientUnits="userSpaceOnUse" gradientTransform="matrix(0.98152968,0,0,1.0188179,-3.99994,0)"/><linearGradient inkscape:collect="always" xlink:href="#linearGradient4" id="linearGradient5" x1="207.55687" y1="209.77908" x2="207.55687" y2="-12.136963" gradientUnits="userSpaceOnUse" gradientTransform="matrix(1.1490822,0,0,0.87025977,-4.0000064,0)"/><linearGradient inkscape:collect="always" xlink:href="#linearGradient14" id="linearGradient15-2" x1="50" y1="97.5" x2="50" y2="2.5" gradientUnits="userSpaceOnUse" gradientTransform="translate(-2.5,1.5)"/></defs><path style="display:none;fill:#4d4d4d;fill-opacity:1;stroke-width:0;stroke-dasharray:none" d="m 14.2875,0 h 348.425 A 14.2875,14.2875 45 0 1 377,14.2875 v 71.425 A 14.2875,14.2875 135 0 1 362.7125,100 H 14.2875 A 14.2875,14.2875 45 0 1 0,85.7125 V 14.2875 A 14.2875,14.2875 135 0 1 14.2875,0 Z" id="path16" sodipodi:nodetypes="ccccc" inkscape:label="bg" inkscape:original-d="M 0,0 H 377 V 100 H 0 Z" inkscape:path-effect="#path-effect16"/><path d="m 129.28153,76.000012 h 4.12622 v 0.624999 c -0.78638,0 -1.15069,0.605995 -1.45243,1.249997 l -5.97476,18.124966 -5.67766,-15.299971 -5.05048,15.299971 -6.73397,-18.124966 C 108.10107,77.058407 107.76536,76.666414 107,76.625011 v -0.624999 h 4.95145 v 0.624999 c -0.4749,0.03786 -0.99018,0.14865 -1.05631,0.999998 l 4.62135,12.524974 3.89515,-11.799975 c -0.34171,-0.98347 -0.7306,-1.67345 -1.6835,-1.724997 v -0.624999 h 4.95146 v 0.624999 c -0.29153,0 -1.05625,0.08701 -1.05625,0.999998 l 4.62135,12.524974 4.06019,-12.274975 c 0,-1.130009 -0.53219,-1.214574 -1.0233,-1.249997 z m 5.77671,19.374959 c 0.90557,0 1.564,-0.494908 1.65049,-1.149996 V 77.725009 c -0.0876,-0.563445 -0.78957,-1.034797 -1.65049,-1.099998 v -0.624999 h 14.85436 v 0.624999 c -1.12184,0.07724 -1.584,0.771609 -1.65048,1.249997 h -9.07767 v 7.499985 h 9.07767 v 0.624999 c -1.12184,0.07724 -1.584,0.771609 -1.65049,1.249999 h -7.42718 v 6.874982 h 9.07767 c 0.0269,0.193502 0.23143,1.152302 1.65048,1.249998 v 0.625003 h -14.85436 z m 16.50485,0 c 1.00896,0 1.65048,-0.605014 1.65048,-1.249998 V 77.775009 c -0.072,-0.491125 -0.60504,-1.074591 -1.65048,-1.149998 v -0.624999 h 6.60193 c 4.31904,0 7.42718,2.737942 7.42718,5.624989 0,2.142394 -1.50153,3.350438 -2.70679,3.974992 1.64328,0.777832 3.53203,2.404913 3.53203,4.774987 0,3.126147 -3.35251,5.624994 -7.42718,5.624994 h -7.42717 z m 7.42717,-1.249998 c 2.42903,0 4.95145,-1.4771 4.95145,-3.749993 0,-2.188703 -2.42148,-3.749989 -4.95145,-3.749989 h -3.30097 v 7.499982 z m 4.12622,-12.499972 c 0,-2.188677 -2.42149,-3.749993 -4.95146,-3.749993 h -2.47573 v 6.874986 h 2.47573 c 0.66351,0 4.95146,-0.116385 4.95146,-3.124993 z m 4.95145,13.74997 c 1.09954,-0.07928 1.58813,-0.82512 1.65048,-1.249998 h 5.77669 c 2.42901,0 4.95145,-1.4771 4.95145,-3.749993 0,-2.188686 -2.42148,-3.749989 -4.95145,-3.749989 -3.64119,0 -7.42717,-1.611399 -7.42717,-4.99999 0,-3.46954 3.81727,-5.624989 7.42717,-5.624989 h 7.42719 v 0.624999 c -1.08035,0.07791 -1.57743,0.751983 -1.65049,1.249997 h -5.7767 c -3.05343,0 -4.95145,1.952732 -4.95145,3.749993 0,3.000427 4.24656,3.124993 4.95145,3.124993 4.31864,0 7.42719,2.737656 7.42719,5.624986 0,2.842747 -3.00057,5.624994 -7.42719,5.624994 h -7.42717 z m 16.50484,-19.374959 h 5.77669 v 0.624999 c -0.90557,0 -1.56397,0.494904 -1.65048,1.149998 v 16.449966 c 0.13024,0.937226 1.17217,1.117065 1.65048,1.149996 v 0.625003 h -5.77669 v -0.625003 c 1.00896,0 1.65049,-0.605014 1.65049,-1.249998 V 77.775009 c -0.0721,-0.491125 -0.60504,-1.074591 -1.65049,-1.149998 z m 9.07767,1.874996 c 0,-0.677884 -0.73733,-1.249997 -1.65048,-1.249997 v -0.624999 h 15.6796 v 0.624999 c -1.22579,0.08439 -1.59564,0.826171 -1.65048,1.199998 v 0.05 h -4.95146 v 16.34997 c 0.0865,0.655427 0.74532,1.149996 1.65049,1.149996 v 0.625003 h -5.7767 v -0.625003 c 1.0448,-0.07537 1.57835,-0.658352 1.65048,-1.149996 V 77.875008 Z m 15.67959,17.499963 c 0.90557,0 1.564,-0.494908 1.65049,-1.149996 V 77.725009 c -0.0876,-0.563445 -0.78957,-1.034797 -1.65049,-1.099998 v -0.624999 h 14.85436 v 0.624999 c -1.12184,0.07724 -1.584,0.771609 -1.65048,1.249997 h -9.07767 v 7.499985 h 9.07767 v 0.624999 c -1.12184,0.07724 -1.584,0.771609 -1.65049,1.249999 h -7.42718 v 6.874982 h 9.07767 c 0.0269,0.19365 0.23148,1.152302 1.65048,1.249998 v 0.625003 h -14.85436 z m 37.13588,-17.499963 c -2.17728,0 -4.95145,1.284285 -4.95145,3.749993 v 8.749979 c 0,2.220929 2.42923,3.749993 4.95145,3.749993 h 5.7767 v 0.05004 c 0.14151,1.018221 1.29693,1.175651 1.65049,1.199993 v 0.625003 h -7.42719 c -4.66202,0 -7.42717,-2.908408 -7.42717,-5.624994 v -8.750014 c 0,-3.072803 3.29624,-5.624989 7.42717,-5.624989 h 7.42719 v 0.624999 c -1.12184,0.07724 -1.584,0.771609 -1.65049,1.249997 z m 9.07767,3.749993 c 0,-3.46954 3.81727,-5.624989 7.42717,-5.624989 4.31866,0 7.42719,2.737659 7.42719,5.624989 v 8.749979 c 0,3.126147 -3.35252,5.624994 -7.42719,5.624994 -3.5138,0 -7.42717,-2.033849 -7.42717,-5.624994 z m 12.37863,0 c 0,-2.188705 -2.42149,-3.749993 -4.95146,-3.749993 -3.05343,0 -4.95145,1.952732 -4.95145,3.749993 v 8.749979 c 0,1.861878 1.95808,3.749993 4.95145,3.749993 2.86835,0 4.95146,-1.801351 4.95146,-3.749993 z m 4.1262,-5.624989 h 5.7767 v 0.624999 c -1.04311,-0.0037 -1.62321,0.611181 -1.65048,1.624997 l 4.39028,11.899975 3.86214,-11.674976 c 0.10606,-1.329502 -0.68354,-1.780252 -1.65049,-1.849996 v -0.624999 h 5.77669 v 0.624999 c -0.90548,0 -1.56395,0.494827 -1.65048,1.149998 v 16.449966 c 0.13025,0.937226 1.17218,1.117065 1.65048,1.149996 v 0.625003 h -5.77669 v -0.625003 c 1.00897,0 1.65049,-0.605014 1.65049,-1.249998 V 83.499997 l -4.12622,12.499977 -4.1262,-11.09998 v 9.324981 c 0.13023,0.937078 1.17175,1.117039 1.65048,1.149996 v 0.625003 h -5.7767 v -0.625003 c 1.00898,0 1.65049,-0.605005 1.65049,-1.249998 V 78.225008 c -0.25304,-0.670784 -0.70022,-1.496969 -1.58446,-1.599997 h -0.0661 z m 22.28152,18.224963 c 0.13025,0.937226 1.17218,1.117065 1.65049,1.149996 v 0.625003 h -5.77669 v -0.625003 c 1.00896,0 1.65048,-0.605014 1.65048,-1.249998 V 77.775009 c -0.0721,-0.491125 -0.60504,-1.074591 -1.65048,-1.149998 v -0.624999 h 7.42717 c 3.86529,0 7.42718,2.393748 7.42718,5.624989 0,2.842746 -3.00056,5.62499 -7.42718,5.62499 h -3.30097 z m 8.25242,-12.599974 c 0,-1.880564 -2.01601,-3.749993 -4.95145,-3.749993 h -3.30097 v 7.499985 h 3.30097 c 2.86832,0 4.95145,-1.801349 4.95145,-3.749992 z m 4.12621,-5.624989 h 5.7767 v 0.624999 c -0.90548,0 -1.56398,0.494827 -1.65049,1.149998 v 16.449966 c 0.13024,0.937078 1.17176,1.117039 1.65049,1.149996 v 0.625003 h -5.7767 v -0.625003 c 1.00897,0 1.65048,-0.605005 1.65048,-1.249998 V 77.775009 c -0.072,-0.491125 -0.60504,-1.074591 -1.65048,-1.149998 z m 7.4272,19.374959 c 1.00896,0 1.65049,-0.605014 1.65049,-1.249998 V 77.775009 c -0.072,-0.491092 -0.60503,-1.074588 -1.65049,-1.149998 v -0.624999 h 5.77669 v 0.624999 c -0.90547,0 -1.56398,0.494827 -1.65048,1.149998 v 16.349964 h 9.07767 c 0.0269,0.193502 0.23144,1.152302 1.65048,1.249998 v 0.625003 h -14.85436 z m 16.50484,0 c 0.90556,0 1.56399,-0.494908 1.65048,-1.149996 V 77.725009 c -0.0876,-0.563445 -0.78957,-1.034797 -1.65048,-1.099998 v -0.624999 h 14.85435 v 0.624999 c -1.12183,0.07724 -1.58399,0.77163 -1.65048,1.249997 h -9.07766 v 7.499985 h 9.07766 v 0.624999 c -1.12184,0.07724 -1.584,0.771631 -1.65049,1.249999 h -7.42717 v 6.874982 h 9.07766 c 0.0269,0.193563 0.23144,1.152302 1.65048,1.249998 v 0.625003 H 330.6406 Z m 20.63104,-1.149996 c 0.13025,0.937174 1.17199,1.117056 1.65049,1.149996 v 0.625003 h -5.77669 v -0.625003 c 1.00895,0 1.65048,-0.605014 1.65048,-1.249998 V 77.775009 c -0.0721,-0.491092 -0.60502,-1.074588 -1.65048,-1.149998 v -0.624999 h 7.42717 c 4.31903,0 7.42719,2.737951 7.42719,5.624989 0,2.743962 -2.65522,4.924269 -5.64466,5.474992 l 3.7961,7.02498 c 0.35456,0.789439 1.01644,1.158333 1.84856,1.249998 v 0.625003 h -4.95146 v -0.625003 c 0.76395,0.0335 0.76068,-0.495726 0.6932,-1.099991 l -3.59805,-6.724993 -0.16506,-0.299996 h -2.70679 z m 8.25242,-12.599974 c 0,-2.028742 -2.22103,-3.749993 -4.95145,-3.749993 h -3.30097 v 7.499985 h 3.30097 c 2.42899,0 4.95145,-1.477097 4.95145,-3.749992 z" id="text2" style="font-size:28.727px;font-family:'Roman Font 7';-inkscape-font-specification:'Roman Font 7, ';fill:url(#linearGradient5);stroke-width:0" inkscape:label="text_sub" aria-label="Website Compiler" sodipodi:nodetypes="cccccccccccccccccccccccccccccccccccccccccccccscccsscssccsssccsssccssccssssscccssssscccccccccccscccccccccccccccccccccccccccccccccccccccssssccccsssscccsssssssssssssssccccccccccccccccsccccccccscccccccccscccsssccssccsscccccccccsccccscccccccccccccccccccccccccccccccccccccscccsscccccccccccssccss"/><path id="path8" style="font-size:67.4801px;font-family:'Roman Font 7';-inkscape-font-specification:'Roman Font 7, ';fill:url(#linearGradient3);stroke-width:0" d="M 121.90245,4.0002726 C 114.78647,4.0002726 107,9.8047196 107,19.468579 c 0,9.378862 7.67064,13.750065 14.90245,13.750065 5.01953,0 9.93531,4.236967 9.93531,10.312549 0,6.311886 -5.12407,10.312549 -9.93531,10.312549 h -11.59051 c -0.12769,1.193062 -1.12417,3.221255 -3.31194,3.437517 v 1.718758 h 14.90245 c 9.28333,0 14.90297,-8.052816 14.90297,-15.468824 0,-8.003378 -6.29801,-15.468823 -14.90297,-15.468823 -5.76687,0 -9.9348,-3.162932 -9.9348,-8.593791 0,-5.005883 3.86455,-10.312032 9.9348,-10.312032 h 11.59102 c 0.14748,-1.3779578 1.1502,-3.2238118 3.31195,-3.4375162 V 4.0002726 Z m 21.91856,0 v 1.7187582 c 1.8137,0 3.31195,1.5535782 3.31195,3.4375162 h 9.93479 V 54.11866 c -0.14703,1.373685 -1.23564,2.957409 -3.31143,3.162599 v 1.718758 h 11.59051 v -1.718758 c -1.80136,0 -3.1364,-1.345574 -3.31143,-3.162599 V 9.156547 h 9.93479 V 9.018571 c 0.11308,-1.0565455 0.87242,-3.0693385 3.31195,-3.2995402 V 4.0002726 Z m 44.98124,0 -13.51185,49.8434694 c -0.84274,2.25979 -1.51763,3.324119 -3.04683,3.437517 v 1.718758 h 9.93531 v -1.718758 c -1.01806,-0.111226 -1.9849,-0.372233 -2.11977,-2.750221 l 1.59008,-5.843571 h 14.30559 l 1.59008,5.843571 c -0.13488,2.377725 -1.10136,2.638952 -2.11976,2.750221 v 1.718758 h 9.93531 v -1.718758 c -1.52953,-0.11342 -2.20438,-1.178456 -3.04685,-3.437517 z m 12.22716,0 v 1.7187582 c 1.81225,0 3.31143,1.551391 3.31143,3.4375162 h 9.9353 V 54.11866 c -0.14701,1.373541 -1.23532,2.957326 -3.31194,3.162599 v 1.718758 h 11.59102 v -1.718758 c -1.80153,0 -3.13687,-1.345126 -3.31194,-3.162599 V 9.156547 h 9.93531 V 9.018571 c 0.11344,-1.0599104 0.87376,-3.0695146 3.31143,-3.2995402 V 4.0002726 Z m 37.58478,0 v 1.7187582 c 2.0786,0.2054818 3.16448,1.789148 3.31143,3.1620808 V 53.843742 c 0,1.79302 -1.30457,3.437517 -3.31143,3.437517 v 1.718758 h 11.59102 v -1.718758 c -2.70666,-0.255389 -3.21955,-2.251577 -3.31194,-3.162599 V 8.8811116 c 0.17482,-1.8148211 1.50722,-3.1620808 3.31194,-3.1620808 V 4.0002726 Z m 32.45074,0 c -7.11601,0 -14.90246,5.8044457 -14.90246,15.4683064 v 24.062614 c 0,9.582263 7.57254,15.468824 14.90246,15.468824 h 14.90296 v -1.718758 c -2.79182,-0.263424 -3.24009,-2.5915 -3.31194,-3.300058 v -0.137459 h -11.59102 c -5.48358,0 -9.9348,-4.616139 -9.9348,-10.312549 V 19.468579 c 0,-5.005927 3.86456,-10.312032 9.9348,-10.312032 h 11.59102 c 0.13598,-1.3410504 1.07958,-3.2268639 3.31194,-3.4375162 V 4.0002726 Z m 21.38939,0 v 1.7187582 c 2.19115,0.2166082 3.18457,2.2474816 3.31194,3.4375162 v 34.374646 c 0,9.582251 7.57253,15.468824 14.90245,15.468824 9.28331,0 14.90245,-8.052763 14.90245,-15.468824 V 9.156547 c 0.15813,-1.6416003 1.36664,-3.4375162 3.31194,-3.4375162 V 4.0002726 h -11.59102 v 1.7187582 c 2.19112,0.2166077 3.18457,2.2474619 3.31194,3.4375162 v 34.374646 c 0,6.305998 -5.11883,10.312549 -9.93531,10.312549 -5.94399,0 -9.93531,-5.125452 -9.93531,-10.312549 V 9.156547 c 0.15813,-1.6416026 1.36664,-3.4375162 3.31194,-3.4375162 V 4.0002726 Z m 54.64318,0 c -7.58985,0 -14.90297,6.3058194 -14.90297,15.4683064 0,10.755985 9.41153,13.750065 14.90297,13.750065 5.48503,0 9.93478,4.743728 9.93478,10.312549 0,6.311883 -5.12381,10.312549 -9.93478,10.312549 h -11.59104 c -0.1277,1.193076 -1.12417,3.221251 -3.31193,3.437517 v 1.718758 h 14.90297 c 7.68712,0 14.90244,-6.363058 14.90244,-15.468824 0,-8.003643 -6.2978,-15.468823 -14.90244,-15.468823 -5.66368,0 -9.93532,-3.086325 -9.93532,-8.593791 0,-5.005509 3.86471,-10.312032 9.93532,-10.312032 h 11.5905 c 0.14748,-1.3779696 1.1502,-3.2238151 3.31194,-3.4375162 L 362,4.0002726 Z M 188.80173,20.087663 h 5.2e-4 l 5.76192,23.44353 h -11.52436 z" inkscape:label="text_main" sodipodi:nodetypes="ssssscccssssscccscccccccccccccccccccccccccccccccccccccccccccccccccccscccccccccssssccccsssscccscccsssccccccsssccccssssscccssssscccsccccc"/><path id="path9" style="display:inline;fill:url(#linearGradient13);stroke-width:0;stroke-dasharray:none" inkscape:label="helmet" d="M 46.000293 0 C 40.708599 0.06172562 37.580043 0.75063769 33.999992 1.9998779 L 40.000142 20.300053 C 41.81588 20.129909 44.274692 19.999813 46.000293 19.999813 C 47.725894 19.999813 50.184706 20.129909 52.000444 20.300053 L 58.000594 1.9998779 C 54.420543 0.75063769 51.291987 0.06172562 46.000293 0 z M 33.000053 19.999813 C 24.789531 23.341574 19.337523 30.776148 16.999996 39.499915 L 16.999996 72.000256 C 21.841279 83.492306 29.374315 92.29271 38.000264 100.0001 L 38.000264 60.999894 C 33.075961 60.084499 28.449088 58.276383 24.000085 55.935087 L 24.000085 47.000232 C 29.921293 48.709357 35.920145 49.718924 42.00002 50.000049 L 42.00002 67.740051 C 43.333353 71.842898 44.66696 73.357073 46.000293 75.000073 C 47.333626 73.357073 48.667233 71.842898 50.000566 67.740051 L 50.000566 50.000049 C 56.080441 49.718924 62.079292 48.709357 68.0005 47.000232 L 68.0005 55.935087 C 63.551497 58.276383 58.924624 60.084499 54.000321 60.999894 L 54.000321 100.0001 C 62.62627 92.29271 70.159307 83.492306 75.00059 72.000256 L 75.00059 39.499915 C 72.663063 30.776148 67.210538 23.341574 59.000016 19.999813 L 56.500427 25.999963 C 53.327966 25.324672 49.786198 25.000024 46.000293 25.000024 C 42.214388 25.000024 38.67262 25.324672 35.500159 25.999963 L 33.000053 19.999813 z "/><path style="display:inline;fill:url(#linearGradient15-2);stroke-width:0;stroke-dasharray:none" d="M 10.58333,4 C 4.73832,4 0,8.73832 0,14.583333 V 28.5 h 2.35 c 0,-2.412763 2.09148,-4.500187 4.65009,-4.500187 v -9.427848 c 0,-1.972693 1.59918,-3.571875 3.57188,-3.571875 h 9.42784 C 19.99981,8.781553 21.99203,6.35 24.5,6.35 V 4 Z M 81.41667,4 C 87.26168,4 92,8.73832 92,14.583333 V 28.5 h -2.35 c 0,-2.412763 -2.09148,-4.500187 -4.65009,-4.500187 v -9.427848 c 0,-1.972693 -1.59918,-3.571875 -3.57188,-3.571875 H 72.00019 C 72.00019,8.781553 70.00797,6.35 67.5,6.35 V 4 Z M 10.58333,96 C 4.73832,96 0,91.26168 0,85.416667 V 71.5 h 2.35 c 0,2.412763 2.09148,4.500187 4.65009,4.500187 v 9.427848 c 0,1.972693 1.59918,3.571875 3.57188,3.571875 h 9.42784 c 0,2.218537 1.99222,4.65009 4.50019,4.65009 V 96 Z m 70.83334,0 C 87.26168,96 92,91.26168 92,85.416667 V 71.5 h -2.35 c 0,2.412763 -2.09148,4.500187 -4.65009,4.500187 v 9.427848 c 0,1.972693 -1.59918,3.571875 -3.57188,3.571875 H 72.00019 C 72.00019,91.218447 70.00797,93.65 67.5,93.65 V 96 Z" id="path15" inkscape:label="corner" sodipodi:nodetypes="sscccsscccs"/></svg>